<svg width="16" height="15" viewBox="0 0 65 61" fill="none" xmlns="http://www.w3.org/2000/svg">
<g clip-path="url(#clip0_72_2074)">
<path d="M50.0647 0C50.8613 0 53.0517 0.597684 53.0517 3.38687H60.6186C61.3157 3.38687 66.2939 4.58228 64.4021 12.9499C63.5238 16.8348 60.0847 22.0539 55.9391 25.2025C51.2127 28.792 45.9825 30.6812 45.9825 30.6812C45.9825 30.6812 44.8952 32.5156 43.1948 34.068C41.594 35.5293 39.4927 36.6852 38.9134 37.5545C37.7187 39.3477 38.5152 46.1215 42.6968 48.7114C44.1904 48.7114 47.6751 48.7114 47.6751 51.6998V58.4735H49.7659C51.1599 58.4735 51.1599 60.964 49.7659 60.964H15.0177C13.6239 60.964 13.6239 58.4735 15.0177 58.4735H17.1086V51.6001C17.1088 50.5045 18.5026 48.8109 19.7969 48.8109H22.1864C23.1821 48.3129 28.1166 41.9376 25.97 37.7295C25.3726 36.5585 22.6729 34.9563 21.0913 33.6453C19.8902 32.6497 18.903 31.1406 18.6022 30.5816C17.3823 30.5816 12.2546 27.9054 10.4378 26.4974C3.36871 21.0186 1.22295 16.498 0.182535 11.1568C-0.636799 6.95059 1.40172 3.28729 4.16519 3.28729H11.6326C11.6326 1.99232 12.8273 3.54977e-05 14.8186 0H50.0647ZM20.6931 51.3014C19.9961 51.3014 19.6973 51.9987 19.6973 52.4967V58.5731H44.987V52.2974C44.987 51.9985 44.8873 51.3014 44.0908 51.3014H20.6931ZM15.1174 2.58998C14.4205 2.58998 14.3209 3.28728 14.3209 3.68574V10.061C14.3209 12.1837 15.123 16.9294 16.7104 21.3174C18.6988 26.8137 22.7839 32.4915 25.8705 34.068C27.2303 34.7625 29.2528 36.8573 29.0565 39.5469C28.9601 40.8665 28.9293 42.7473 28.4592 44.129C27.5475 46.8088 25.97 48.7114 25.97 48.7114H38.9135C38.9135 48.7114 31.1475 38.5063 39.3117 33.9684C44.987 30.2827 50.8613 18.5283 50.4631 10.061V3.68574C50.4631 2.98844 50.0648 2.58998 49.5669 2.58998H15.1174ZM4.86215 5.87727C2.57218 5.87727 2.47256 9.36366 2.77123 10.9575C2.91214 11.7094 4.17518 16.8151 7.35133 20.421C10.9043 24.4545 16.3999 26.99 16.4117 26.9954C16.4016 26.9747 12.6276 19.3197 12.1305 15.241C11.6334 11.1627 11.6326 5.89242 11.6326 5.87727H4.86215ZM53.0518 5.87727C53.0523 5.89464 53.2497 12.5568 52.3548 16.6356C51.4602 20.7131 48.2832 26.9747 48.2726 26.9954C48.2889 26.9883 53.3703 24.7681 57.0344 21.0186C59.9941 17.9895 61.6462 13.5335 61.913 11.7545C62.5104 7.76998 61.913 5.87728 59.8222 5.87727H53.0518Z" fill="url(#paint0_linear_72_2074)"/>
<path d="M34.1348 12.2525C33.0833 10.3128 33.6685 8.01604 34.3061 6.96606C32.9399 7.17222 30.4387 9.60686 30.2517 11.5552C30.0525 14.8425 33.2379 17.5576 30.7496 19.4248C29.1564 20.6201 27.5387 18.6725 27.3642 15.241C27.3642 15.241 23.979 18.827 25.1739 23.0109C26.3687 27.1947 30.9486 28.7885 30.9486 28.7885C30.9486 28.7885 30.2394 26.5909 30.65 24.7043C30.856 23.7573 31.6106 23.1124 32.3426 22.4131C34.533 20.3213 34.7321 19.3252 34.7321 19.3252C34.7321 19.3252 35.6314 21.0836 35.6282 23.4093C35.6251 25.6935 34.7259 28.5425 34.0352 28.8881C38.8565 26.5843 40.2676 22.4948 39.4117 19.5244C38.5731 16.6142 35.5297 14.8261 34.1348 12.2525Z" fill="#FF6A00"/>
<path d="M2.47311 31.9761H0.183105V34.1677H2.47311V31.9761Z" fill="#8A00FF"/>
<path d="M2.47311 38.0526H0.183105V40.3438H2.47311V38.0526Z" fill="#8A00FF"/>
<path d="M6.45573 43.4318H4.06616V45.723H6.45573V43.4318Z" fill="#8A00FF"/>
<path d="M60.8184 43.4318H58.4287V45.723H60.8184V43.4318Z" fill="#3A91FF"/>
<path d="M64.9999 38.0526H62.6104V40.3438H64.9999V38.0526Z" fill="#3A91FF"/>
<path d="M60.8182 31.8766H58.4287V34.2673H60.8182V31.8766Z" fill="#3A91FF"/>
</g>
<defs>
<linearGradient id="paint0_linear_72_2074" x1="-12.1518" y1="20.586" x2="86.2038" y2="48.5044" gradientUnits="userSpaceOnUse">
<stop stop-color="#FE5561"/>
<stop offset="0.267404" stop-color="#D354A8"/>
<stop offset="0.487482" stop-color="#655BF5"/>
<stop offset="0.75" stop-color="#2580FC"/>
<stop offset="1" stop-color="#235799"/>
</linearGradient>
<clipPath id="clip0_72_2074">
<rect width="65" height="61" fill="white"/>
</clipPath>
</defs>
</svg>
